<svg xmlns="http://www.w3.org/2000/svg" width="38.893" height="38.892" style="enable-background:new 0 0 38.893 38.892" xml:space="preserve"><path d="m38.205 17.756-4.152-7.979a1.501 1.501 0 0 0-2.021-.64 1.502 1.502 0 0 0-.639 2.023l3.305 6.354H22.509a1.5 1.5 0 0 0-1.5 1.5v1.672h-3.128v-1.672a1.5 1.5 0 0 0-1.5-1.5H4.194l3.307-6.354a1.5 1.5 0 0 0-2.662-1.383L.686 17.756A1.497 1.497 0 0 0 0 19.014v9.41a1.5 1.5 0 0 0 1.5 1.5h14.882a1.5 1.5 0 0 0 1.5-1.5v-4.738h3.128v4.737a1.5 1.5 0 0 0 1.5 1.5h14.883a1.5 1.5 0 0 0 1.5-1.5v-9.41a1.5 1.5 0 0 0-.688-1.257zm-23.323 9.168H3v-6.41h11.882v6.41zm21.01 0H24.009v-6.41h11.883v6.41z"/></svg>