<svg xmlns="http://www.w3.org/2000/svg" viewBox="0 0 512.002 512.002" style="enable-background:new 0 0 512.002 512.002" xml:space="preserve"><path style="fill:#ffc299" d="m446.816 261.65 28.45-56.012c-15.262-3.249-35.99 1.253-59.713 20.71-31.988 26.237-77.091 132.899-109.228 217.535-1.706 3.414-6.757 18.368 7.976 18.368h100.388c4.385-.334 12.472-2.337 15.502-12.269 16.567-54.486 36.411-117.157 45.074-138.87-48.379-23.642-28.449-49.462-28.449-49.462z"/><path style="fill:#f9b887" d="M329.477 443.883c2.137-4.274 66.562-182.539 109.228-217.535 13.07-10.721 25.228-16.893 36.067-19.738l.494-.972c-15.262-3.249-35.99 1.253-59.713 20.71-37.742 30.957-92.803 174.151-110.206 220.115-1.645 5.055-3.657 15.788 8.955 15.788h23.152c-11.017-.001-11.92-7.981-7.977-18.368z"/><path style="fill:#f9d9b9" d="m475.266 205.638-29.45 56.012s-20.082 28.712 28.297 52.352c12.385-31.047 23.97-60.792 27.313-71.591 14.819-39.963-26.16-36.773-26.16-36.773z"/><path style="fill:#f9e4d2" d="M501.427 242.411c7.096-19.137 1.395-28.375-6.473-32.809l-31.408 66.618s-9.338 14.683.049 31.912c3.085 1.978 6.569 3.942 10.518 5.872 12.386-31.049 23.971-60.794 27.314-71.593z"/><path style="fill:#dceff9" d="M354.311 191.09c14.016-35.379 17.167-67.575 7.498-73.724 28.376 8.729 48.661 52.128 33.648 90.025-15.03 37.938-59.586 55.628-86.172 42.557 11.257 2.141 31.011-23.479 45.026-58.858z"/><path style="fill:#b5e0f7" d="M337.139 225.4c21.598 1.32 47.457-10.788 62.429-32.997-7.816 48.027-60.369 72.252-90.282 57.544 7.096 1.35 17.569-8.34 27.853-24.547z"/><ellipse transform="rotate(111.611 335.345 183.572)" style="fill:#6ebeff" cx="335.343" cy="183.573" rx="71.432" ry="21.43"/><path style="fill:#c8e9fc" d="M211.998 53.278C128.969 65.519 47.803 131.024 20.325 184.044c31.968 48.505 131.288 79.897 197.878 80.105 29.851-66.218 28.543-144.516-6.205-210.871z"/><path style="fill:#b5e0f7" d="M102.624 98.278c-37.511 25.448-67.595 57.393-82.299 85.767 17.007 25.806 53.08 46.767 93.145 60.767-36.886-41.353-40.378-101.589-10.846-146.534z"/><path style="fill:#6ebeff" d="M168.345 158.714c0 46.452 24.292 84.826 55.819 90.965 20.994-56.102 21.044-121.592-4.698-180.771-29.21 8.85-51.121 45.688-51.121 89.806z"/><path d="M307.767 254.642c29.558 13.944 76.921-4.723 93.177-45.416 16.347-40.918-5.475-86.941-36.239-97.116-22.004-11.601-47.019 37.177-56.21 60.185-9.193 23.01-24.671 75.595-.728 82.347zm66.735-118.792c14.562 14.933 22.536 42.733 12.518 67.813-10.019 25.079-34.953 39.733-55.796 40.522 21.331-22.465 43.258-76.002 43.278-108.335zm-52.083 42.005c14.441-36.15 30.658-51.762 35.259-52.404 3.223 3.622 1.426 20.307-.548 29.881-9.504 45.982-37.013 83.71-45.276 84.779-2.883-3.68-3.857-26.154 10.565-62.256zM238.732 57.998c4.141 0 7.497-3.356 7.497-7.497s-3.356-7.497-7.497-7.497C143.296 43.004 37.396 119.147.633 203a7.498 7.498 0 0 0 13.732 6.021 189.532 189.532 0 0 1 6.215-12.798c42.737 50.73 154.944 81.049 219.023 73.551a7.496 7.496 0 1 0-1.744-14.892 145.74 145.74 0 0 1-8.332.718c12.79-32.408 16.701-65.287 16.701-74.583 0-24.613 3.457-66.213-22.905-122.293.504-.046 1.007-.086 1.509-.128 5.004-.417 9.672-.598 13.9-.598zm-71.253 142.046a7.495 7.495 0 0 0 9.503 4.7 7.496 7.496 0 0 0 4.701-9.503c-15.474-45.769.51-101.476 33.578-117.45 20.239 50.744 22.253 108.797 4.083 162.051-9.801-3.606-18.975-11.124-26.312-21.682a7.498 7.498 0 0 0-10.435-1.879 7.496 7.496 0 0 0-1.878 10.434c9.074 13.06 20.686 22.456 33.331 27.146-.272.655-.535 1.313-.813 1.965-63.096-1.647-152.155-30.378-184.209-73.051C56.759 133.564 131.068 74.301 207.71 60.823c.534 1.079 1.045 2.166 1.561 3.252-41.966 19.924-59.139 84.658-41.792 135.969zM475.674 197.352c-19.691-3.746-42.71 4.189-64.974 22.449-35.01 28.718-83.713 145.867-118.403 239.085-1.819 4.891 1.803 10.112 7.026 10.112h127.05a7.497 7.497 0 0 0 7.176-5.325c7.368-24.345 14.137-46.394 20.116-65.536a7.499 7.499 0 0 0-14.313-4.471c-5.554 17.777-11.783 38.052-18.542 60.337H310.132c46.461-123.519 85.446-202.405 110.077-222.609 14.963-12.272 29.862-19.108 43.013-19.897-27.052 51.452-25.715 48.465-26.886 51.643-8.352 22.676 7.131 41.798 28.297 53.662-4.186 11.341-10.134 29.087-17.734 52.929a7.496 7.496 0 0 0 4.865 9.42c3.945 1.263 8.163-.921 9.42-4.865 9.1-28.544 15.76-48.144 19.793-58.255 15.226-38.169 24.462-62.374 27.451-71.956 12.298-33.432-9.25-47.681-32.754-46.723zm-5.514 105.314c-8.447-5.002-17.794-12.447-20.375-21.971-2.355-8.69 1.94-15.291 2.076-15.498.422-.601-1.367 2.73 27.836-52.815 4.832.32 11.858 1.731 15.164 6.108 5.493 7.277 2.006 16.946-24.701 84.176z"/></svg>