<svg xmlns="http://www.w3.org/2000/svg" style="enable-background:new 0 0 512 512" xml:space="preserve" width="512" height="512"><path d="M316.618 60.618c-107.733 0-195.382 87.648-195.382 195.382s87.648 195.382 195.382 195.382S512 363.733 512 256 424.352 60.618 316.618 60.618zm-156.315 249.22c-5.831-16.885-9.008-34.996-9.008-53.838s3.176-36.953 9.008-53.838c8.493 16.578 13.035 35.062 13.035 53.838s-4.542 37.26-13.035 53.838zm15.342 32.433c17.953-25.067 27.752-55.356 27.752-86.271s-9.799-61.205-27.752-86.271a166.376 166.376 0 0 1 22.023-28.421c26.727 32.282 41.299 72.468 41.299 114.692s-14.571 82.41-41.299 114.692a166.337 166.337 0 0 1-22.023-28.421zm140.973 79.052c-35.862 0-69.09-11.483-96.211-30.958 31.459-37.75 48.618-84.853 48.618-134.364s-17.159-96.614-48.618-134.364c27.121-19.475 60.349-30.958 96.211-30.958 91.159 0 165.323 74.164 165.323 165.323s-74.164 165.321-165.323 165.321z" data-original="#000000" data-old_color="#000000" fill="#FFF"/><path d="M91.178 256c0-55.307 13.536-110.225 39.145-158.818 5.515-10.464 3.05-23.069-5.994-30.652-9.047-7.585-21.892-7.812-31.234-.556-28.329 22-51.768 50.535-67.778 82.517C8.518 182.049 0 218.219 0 256c0 37.781 8.518 73.951 25.317 107.508 16.01 31.983 39.449 60.517 67.778 82.517 4.549 3.533 9.926 5.291 15.293 5.291 5.657 0 11.299-1.955 15.941-5.847 9.044-7.583 11.508-20.186 5.993-30.652C104.715 366.225 91.178 311.307 91.178 256zm-61.119 0c0-56.996 22.511-110.311 62.502-149.687C71.935 153.2 61.119 204.451 61.119 256S71.934 358.8 92.56 405.687C52.57 366.311 30.059 312.996 30.059 256z" data-original="#000000" data-old_color="#000000" fill="#FFF"/></svg>