<svg xmlns="http://www.w3.org/2000/svg" viewBox="0 0 512.001 512.001" style="enable-background:new 0 0 512.001 512.001" xml:space="preserve"><path style="fill:#dceff9" d="M274.729 302.11c-106.435 10.671-244.491-.138-264.823-21.09 28.742 65.299 96.013 111.123 174.431 111.123 48.952 0 94.558-17.858 128.162-47.161a208.055 208.055 0 0 1-37.77-42.872z"/><path style="fill:#c8e9fc" d="M70.014 299.086c-31.214-4.523-53.12-10.864-60.108-18.066 28.742 65.299 96.013 111.123 174.431 111.123 8.602 0 17.096-.563 25.445-1.631-60.123-7.763-111.296-42.65-139.768-91.426z"/><path style="fill:#6ebeff" d="M249.341 247.88c-116.156-7.711-241.839 6.892-241.839 28.164 0 23.477 150.007 37.817 267.227 26.065a204.65 204.65 0 0 1-25.388-54.229zM502.881 378.889c-11.465 11.796-76.741-36.245-145.798-107.301-69.057-71.055-115.746-138.22-104.283-150.017 11.465-11.796 76.741 36.245 145.798 107.3 69.059 71.056 115.748 138.223 104.283 150.018z"/><path style="fill:#6ebeff" d="M502.881 378.889c-11.465 11.796-76.741-36.245-145.798-107.301-69.057-71.055-115.746-138.22-104.283-150.017 11.465-11.796 76.741 36.245 145.798 107.3 69.059 71.056 115.748 138.223 104.283 150.018z"/><path style="fill:#dceff9" d="M357.083 271.588c-62.04-63.834-106.017-124.521-106.004-144.75-24.55 67.086-8.476 148.432 46.975 205.486 55.451 57.055 134.508 73.594 199.709 48.334-19.662.016-78.64-45.234-140.68-109.07z"/><path style="fill:#c8e9fc" d="M279.981 181.717c-18.238-25.134-28.908-44.915-28.902-54.878-27.711 75.725-3.199 167.66 66.389 223.083-38.312-49.522-51.026-112.292-37.487-168.205z"/><path d="M487.095 321.82c-35.344-50.845-95.272-113.736-143.478-155.457a7.503 7.503 0 0 0-10.582.763 7.501 7.501 0 0 0 .763 10.582c82.183 71.132 161.606 169.576 163.288 195.417-2.536-.242-9.417-1.916-24.242-11.28-80.396-51.257-212.45-200.381-214.249-234.566 5.054.41 21.515 6.837 55.833 34.279a7.5 7.5 0 0 0 10.544-1.173 7.501 7.501 0 0 0-1.174-10.545c-17.627-14.095-32.624-24.412-44.578-30.662-9.837-5.144-23.835-11.035-31.802-2.835-2.467 2.539-3.525 5.708-3.767 8.994-13.225 36.829-14.627 76.649-5.341 114.429-17.394-.945-35.492-1.43-53.975-1.43C149.579 238.337 0 241.193 0 276.044c0 3.591 1.44 6.608 3.544 9.117 31.173 69.587 101.992 114.485 180.793 114.485 25.819 0 50.922-4.741 74.613-14.09a7.502 7.502 0 1 0-5.507-13.957c-83.42 32.924-180.569 2.083-226.412-73.846 58.765 18.538 181.141 18.028 242.985 12.256a216.607 216.607 0 0 0 30.011 34.759 182.785 182.785 0 0 1-24.375 16.307 7.503 7.503 0 0 0 7.316 13.1 197.978 197.978 0 0 0 28.555-19.413c53.736 43.467 124.829 57.211 187.776 33.335 4.505-.371 7.344-2.311 8.963-3.976 12.677-13.047-10.043-46.299-21.167-62.301zm-244.403-66.78a213.988 213.988 0 0 0 18.259 40.701c-106.915 8.908-228.017-3.263-245.408-19.703 15.934-14.747 119.441-27.494 227.149-20.998zm8.988-103.652c20.367 38.938 69.099 93.614 100.022 125.429h.001c30.516 31.398 84.779 82.828 122.622 103.323-130.499 31.406-251.903-98.093-222.645-228.752z"/></svg>