<?xml version="1.0" encoding="iso-8859-1"?>
<!-- Generator: Adobe Illustrator 19.0.0, SVG Export Plug-In . SVG Version: 6.00 Build 0)  -->
<svg version="1.1" id="Capa_1" xmlns="http://www.w3.org/2000/svg" xmlns:xlink="http://www.w3.org/1999/xlink" x="0px" y="0px"
	 viewBox="0 0 512.001 512.001" style="enable-background:new 0 0 512.001 512.001;" xml:space="preserve">
<path style="fill:#DCEFF9;" d="M274.729,302.11c-106.435,10.671-244.491-0.138-264.823-21.09
	c28.742,65.299,96.013,111.123,174.431,111.123c48.952,0,94.558-17.858,128.162-47.161
	C298.515,332.951,285.622,318.58,274.729,302.11z"/>
<path style="fill:#C8E9FC;" d="M70.014,299.086c-31.214-4.523-53.12-10.864-60.108-18.066
	c28.742,65.299,96.013,111.123,174.431,111.123c8.602,0,17.096-0.563,25.445-1.631C149.659,382.749,98.486,347.862,70.014,299.086z"
	/>
<path style="fill:#6EBEFF;" d="M249.341,247.88c-116.156-7.711-241.839,6.892-241.839,28.164
	c0,23.477,150.007,37.817,267.227,26.065C263.453,285.059,254.982,266.74,249.341,247.88z"/>
<path id="SVGCleanerId_0" style="fill:#6EBEFF;" d="M502.881,378.889c-11.465,11.796-76.741-36.245-145.798-107.301
	c-69.057-71.055-115.746-138.22-104.283-150.017c11.465-11.796,76.741,36.245,145.798,107.3
	C467.657,299.927,514.346,367.094,502.881,378.889z"/>
<g>
	<path id="SVGCleanerId_0_1_" style="fill:#6EBEFF;" d="M502.881,378.889c-11.465,11.796-76.741-36.245-145.798-107.301
		c-69.057-71.055-115.746-138.22-104.283-150.017c11.465-11.796,76.741,36.245,145.798,107.3
		C467.657,299.927,514.346,367.094,502.881,378.889z"/>
</g>
<path style="fill:#DCEFF9;" d="M357.083,271.588c-62.04-63.834-106.017-124.521-106.004-144.75
	c-24.55,67.086-8.476,148.432,46.975,205.486c55.451,57.055,134.508,73.594,199.709,48.334
	C478.101,380.674,419.123,335.424,357.083,271.588z"/>
<path style="fill:#C8E9FC;" d="M279.981,181.717c-18.238-25.134-28.908-44.915-28.902-54.878
	c-27.711,75.725-3.199,167.66,66.389,223.083C279.156,300.4,266.442,237.63,279.981,181.717z"/>
<path d="M487.095,321.82c-35.344-50.845-95.272-113.736-143.478-155.457c-3.131-2.71-7.87-2.37-10.582,0.763
	c-2.712,3.133-2.37,7.87,0.763,10.582c82.183,71.132,161.606,169.576,163.288,195.417c-2.536-0.242-9.417-1.916-24.242-11.28
	c-80.396-51.257-212.45-200.381-214.249-234.566c5.054,0.41,21.515,6.837,55.833,34.279c3.237,2.589,7.957,2.063,10.544-1.173
	c2.588-3.236,2.063-7.958-1.174-10.545c-17.627-14.095-32.624-24.412-44.578-30.662c-9.837-5.144-23.835-11.035-31.802-2.835
	c-2.467,2.539-3.525,5.708-3.767,8.994c-13.225,36.829-14.627,76.649-5.341,114.429c-17.394-0.945-35.492-1.43-53.975-1.43
	C149.579,238.337,0,241.193,0,276.044c0,3.591,1.44,6.608,3.544,9.117c31.173,69.587,101.992,114.485,180.793,114.485
	c25.819,0,50.922-4.741,74.613-14.09c3.855-1.521,5.746-5.879,4.225-9.733c-1.52-3.854-5.88-5.745-9.732-4.224
	c-83.42,32.924-180.569,2.083-226.412-73.846c58.765,18.538,181.141,18.028,242.985,12.256
	c8.639,12.482,18.769,24.242,30.011,34.759c-7.653,6.064-15.822,11.531-24.375,16.307c-3.617,2.021-4.912,6.59-2.892,10.208
	c2.021,3.617,6.592,4.914,10.208,2.892c10.071-5.625,19.646-12.146,28.555-19.413c53.736,43.467,124.829,57.211,187.776,33.335
	c4.505-0.371,7.344-2.311,8.963-3.976C520.939,371.074,498.219,337.822,487.095,321.82z M242.692,255.04
	c4.715,14.389,10.955,28.134,18.259,40.701c-106.915,8.908-228.017-3.263-245.408-19.703
	C31.477,261.291,134.984,248.544,242.692,255.04z M251.68,151.388c20.367,38.938,69.099,93.614,100.022,125.429
	c0.001,0,0.001,0,0.001,0c30.516,31.398,84.779,82.828,122.622,103.323C343.826,411.546,222.422,282.047,251.68,151.388z"/>
<g>
</g>
<g>
</g>
<g>
</g>
<g>
</g>
<g>
</g>
<g>
</g>
<g>
</g>
<g>
</g>
<g>
</g>
<g>
</g>
<g>
</g>
<g>
</g>
<g>
</g>
<g>
</g>
<g>
</g>
</svg>
