<?xml version="1.0" encoding="iso-8859-1"?>
<!-- Generator: Adobe Illustrator 19.0.0, SVG Export Plug-In . SVG Version: 6.00 Build 0)  -->
<svg version="1.1" id="Capa_1" xmlns="http://www.w3.org/2000/svg" xmlns:xlink="http://www.w3.org/1999/xlink" x="0px" y="0px"
	 viewBox="0 0 512.002 512.002" style="enable-background:new 0 0 512.002 512.002;" xml:space="preserve">
<path style="fill:#FFC299;" d="M446.816,261.65l28.45-56.012c-15.262-3.249-35.99,1.253-59.713,20.71
	c-31.988,26.237-77.091,132.899-109.228,217.535l0,0c-1.706,3.414-6.757,18.368,7.976,18.368c9.044,0,90.66,0,100.388,0
	c4.385-0.334,12.472-2.337,15.502-12.269c16.567-54.486,36.411-117.157,45.074-138.87C426.886,287.47,446.816,261.65,446.816,261.65
	z"/>
<path style="fill:#F9B887;" d="M329.477,443.883c2.137-4.274,66.562-182.539,109.228-217.535
	c13.07-10.721,25.228-16.893,36.067-19.738l0.494-0.972c-15.262-3.249-35.99,1.253-59.713,20.71
	c-37.742,30.957-92.803,174.151-110.206,220.115c-1.645,5.055-3.657,15.788,8.955,15.788h23.152
	C326.437,462.25,325.534,454.27,329.477,443.883z"/>
<path style="fill:#F9D9B9;" d="M475.266,205.638l-29.45,56.012c0,0-20.082,28.712,28.297,52.352
	c12.385-31.047,23.97-60.792,27.313-71.591C516.245,202.448,475.266,205.638,475.266,205.638z"/>
<path style="fill:#F9E4D2;" d="M501.427,242.411c7.096-19.137,1.395-28.375-6.473-32.809l-31.408,66.618
	c0,0-9.338,14.683,0.049,31.912c3.085,1.978,6.569,3.942,10.518,5.872C486.499,282.955,498.084,253.21,501.427,242.411z"/>
<path style="fill:#DCEFF9;" d="M354.311,191.09c14.016-35.379,17.167-67.575,7.498-73.724c28.376,8.729,48.661,52.128,33.648,90.025
	c-15.03,37.938-59.586,55.628-86.172,42.557C320.542,252.089,340.296,226.469,354.311,191.09z"/>
<path style="fill:#B5E0F7;" d="M337.139,225.4c21.598,1.32,47.457-10.788,62.429-32.997c-7.816,48.027-60.369,72.252-90.282,57.544
	C316.382,251.297,326.855,241.607,337.139,225.4z"/>
<ellipse transform="matrix(-0.3683 0.9297 -0.9297 -0.3683 629.5197 -60.5879)" style="fill:#6EBEFF;" cx="335.343" cy="183.573" rx="71.432" ry="21.43"/>
<path style="fill:#C8E9FC;" d="M211.998,53.278C128.969,65.519,47.803,131.024,20.325,184.044
	c31.968,48.505,131.288,79.897,197.878,80.105C248.054,197.931,246.746,119.633,211.998,53.278z"/>
<path style="fill:#B5E0F7;" d="M102.624,98.278c-37.511,25.448-67.595,57.393-82.299,85.767
	c17.007,25.806,53.08,46.767,93.145,60.767C76.584,203.459,73.092,143.223,102.624,98.278z"/>
<path style="fill:#6EBEFF;" d="M168.345,158.714c0,46.452,24.292,84.826,55.819,90.965c20.994-56.102,21.044-121.592-4.698-180.771
	C190.256,77.758,168.345,114.596,168.345,158.714z"/>
<path d="M307.767,254.642c29.558,13.944,76.921-4.723,93.177-45.416c16.347-40.918-5.475-86.941-36.239-97.116
	c-22.004-11.601-47.019,37.177-56.21,60.185C299.302,195.305,283.824,247.89,307.767,254.642z M374.502,135.85
	c14.562,14.933,22.536,42.733,12.518,67.813c-10.019,25.079-34.953,39.733-55.796,40.522
	C352.555,221.72,374.482,168.183,374.502,135.85z M322.419,177.855c14.441-36.15,30.658-51.762,35.259-52.404
	c3.223,3.622,1.426,20.307-0.548,29.881c-9.504,45.982-37.013,83.71-45.276,84.779C308.971,236.431,307.997,213.957,322.419,177.855
	z"/>
<path d="M238.732,57.998c4.141,0,7.497-3.356,7.497-7.497s-3.356-7.497-7.497-7.497C143.296,43.004,37.396,119.147,0.633,203
	c-1.663,3.793,0.063,8.215,3.856,9.877c3.791,1.661,8.213-0.063,9.876-3.856c1.887-4.304,3.97-8.572,6.215-12.798
	c42.737,50.73,154.944,81.049,219.023,73.551c4.112-0.481,7.056-4.205,6.574-8.318s-4.204-7.048-8.318-6.574
	c-2.677,0.313-5.463,0.549-8.332,0.718c12.79-32.408,16.701-65.287,16.701-74.583c0-24.613,3.457-66.213-22.905-122.293
	c0.504-0.046,1.007-0.086,1.509-0.128C229.836,58.179,234.504,57.998,238.732,57.998z M167.479,200.044
	c1.326,3.922,5.581,6.028,9.503,4.7c3.922-1.326,6.028-5.581,4.701-9.503c-15.474-45.769,0.51-101.476,33.578-117.45
	c20.239,50.744,22.253,108.797,4.083,162.051c-9.801-3.606-18.975-11.124-26.312-21.682c-2.363-3.401-7.033-4.24-10.435-1.879
	c-3.4,2.362-4.241,7.034-1.878,10.434c9.074,13.06,20.686,22.456,33.331,27.146c-0.272,0.655-0.535,1.313-0.813,1.965
	c-63.096-1.647-152.155-30.378-184.209-73.051C56.759,133.564,131.068,74.301,207.71,60.823c0.534,1.079,1.045,2.166,1.561,3.252
	C167.305,83.999,150.132,148.733,167.479,200.044z"/>
<path d="M475.674,197.352c-19.691-3.746-42.71,4.189-64.974,22.449c-35.01,28.718-83.713,145.867-118.403,239.085
	c-1.819,4.891,1.803,10.112,7.026,10.112h127.05c3.305,0,6.219-2.163,7.176-5.325c7.368-24.345,14.137-46.394,20.116-65.536
	c1.234-3.952-0.969-8.157-4.921-9.392s-8.157,0.97-9.392,4.921c-5.554,17.777-11.783,38.052-18.542,60.337H310.132
	c46.461-123.519,85.446-202.405,110.077-222.609c14.963-12.272,29.862-19.108,43.013-19.897
	c-27.052,51.452-25.715,48.465-26.886,51.643c-8.352,22.676,7.131,41.798,28.297,53.662c-4.186,11.341-10.134,29.087-17.734,52.929
	c-1.259,3.944,0.921,8.163,4.865,9.42c3.945,1.263,8.163-0.921,9.42-4.865c9.1-28.544,15.76-48.144,19.793-58.255
	c15.226-38.169,24.462-62.374,27.451-71.956C520.726,210.643,499.178,196.394,475.674,197.352z M470.16,302.666
	c-8.447-5.002-17.794-12.447-20.375-21.971c-2.355-8.69,1.94-15.291,2.076-15.498c0.422-0.601-1.367,2.73,27.836-52.815
	c4.832,0.32,11.858,1.731,15.164,6.108C500.354,225.767,496.867,235.436,470.16,302.666z"/>
<g>
</g>
<g>
</g>
<g>
</g>
<g>
</g>
<g>
</g>
<g>
</g>
<g>
</g>
<g>
</g>
<g>
</g>
<g>
</g>
<g>
</g>
<g>
</g>
<g>
</g>
<g>
</g>
<g>
</g>
</svg>
